<svg id="apple" xmlns="http://www.w3.org/2000/svg" width="21" height="21" viewBox="0 0 21 21">
  <rect id="Rectangle_176" data-name="Rectangle 176" width="21" height="21" fill="none"/>
  <path id="path4" d="M17.318,16.365a11.417,11.417,0,0,1-1.129,2.03,10.313,10.313,0,0,1-1.454,1.758,2.821,2.821,0,0,1-1.869.823,4.685,4.685,0,0,1-1.727-.412,4.954,4.954,0,0,0-1.859-.411,5.122,5.122,0,0,0-1.911.411A5.143,5.143,0,0,1,5.717,21a2.656,2.656,0,0,1-1.911-.845,10.83,10.83,0,0,1-1.521-1.82,12.587,12.587,0,0,1-1.609-3.2A11.7,11.7,0,0,1,0,11.33,6.954,6.954,0,0,1,.913,7.691,5.357,5.357,0,0,1,2.826,5.757a5.145,5.145,0,0,1,2.586-.73,6.088,6.088,0,0,1,2,.465A6.429,6.429,0,0,0,9,5.959a9.492,9.492,0,0,0,1.759-.549,5.814,5.814,0,0,1,2.391-.425,5.077,5.077,0,0,1,3.977,2.094A4.424,4.424,0,0,0,14.779,11.1a4.433,4.433,0,0,0,1.456,3.34,4.784,4.784,0,0,0,1.454.954q-.175.507-.371.973ZM13.266.42a4.48,4.48,0,0,1-1.148,2.938,3.913,3.913,0,0,1-3.25,1.6,3.269,3.269,0,0,1-.024-.4A4.6,4.6,0,0,1,10.062,1.6,4.691,4.691,0,0,1,11.546.481,4.425,4.425,0,0,1,13.244,0a3.817,3.817,0,0,1,.022.42Z" transform="translate(1.656)" fill="#fff"/>
</svg>
