<svg xmlns="http://www.w3.org/2000/svg" width="57.478" height="62.273" viewBox="0 0 57.478 62.273">
  <path id="idea" d="M126.715,80.758c-1.469-.718-.476-3.03,1-2.309a9.118,9.118,0,0,0,2.892.516,1.2,1.2,0,0,1,.967.673,1.26,1.26,0,0,1-1.256,1.827,10.592,10.592,0,0,1-3.6-.707m-4.343-14.189a1.259,1.259,0,0,1-.994-2.313,21.16,21.16,0,0,1,4.691-1.1,1.26,1.26,0,0,1,.391,2.488,18.629,18.629,0,0,0-4.087.922M108.129,54.306a1.175,1.175,0,0,1-.588.962,1.289,1.289,0,0,1-1.92-1.2A18.657,18.657,0,0,1,106.6,50.4c.438-1.583,2.82-.775,2.384.8a16.363,16.363,0,0,0-.86,3.1M93.27,56.624c1.137,1.19-.762,2.842-1.892,1.661a38.047,38.047,0,0,1-2.552-3.213c-1-1.3.971-2.866,1.969-1.565a37.493,37.493,0,0,0,2.474,3.118M82.3,66.457a1.2,1.2,0,0,1,.964.646A1.269,1.269,0,0,1,82.03,68.96a14,14,0,0,1-5.339-1.792c-1.442-.8-.071-2.9,1.355-2.116A11.194,11.194,0,0,0,82.3,66.457M79.655,79.716a1.259,1.259,0,0,1,1.028,2.3c-1.724.784-3.391,1.929-5.395,1.626a1.259,1.259,0,0,1,.325-2.5c1.311.2,2.883-.9,4.042-1.427m6.635,14.6A1.26,1.26,0,0,1,87.9,96.251,12.5,12.5,0,0,1,82.949,99.2c-1.6.414-2.041-2.067-.489-2.467a10.14,10.14,0,0,0,3.829-2.419m29.534,1.247c-.95-1.324,1.034-2.871,1.993-1.536a7.976,7.976,0,0,0,1.775,1.824,1.2,1.2,0,0,1,.512,1.065,1.261,1.261,0,0,1-1.989.975,10.279,10.279,0,0,1-2.291-2.329M93.051,106.945A4.659,4.659,0,0,0,96.6,111.67a4.832,4.832,0,0,0,5.485-2.642l.014-.027a4.892,4.892,0,0,0,3.229-2.623c2.162-4.332,1.1-10.508,5.1-13.991,1.741-1.514,3.947-2.424,5.725-3.933a15.812,15.812,0,0,0,5.378-9.126c.984-5.133-1.252-10.234-4.912-13.79a17.811,17.811,0,0,0-8.253-4.607c-8.751-2.02-19.181,2.053-21.416,11.425-1.144,4.8,1.533,8.828,3.815,12.787,1.494,2.589,3.595,5.454,3.1,8.618-.1.636-.281,1.328-.425,1.959-.259,1.124-.523,2.25-.777,3.376-.284,1.249-.569,2.505-.806,3.764-.387,2.045-.258,2.735,1.2,4.085m5.93-9.089c.049-.29.084-.588.11-.776.134-.963.244-1.931.344-2.9.29-2.791.507-5.6.641-8.405.067-1.391.113-2.788.121-4.181.552.147,1.1.277,1.661.409.6.142,1.194.293,1.8.424-.917,5.228-2.228,10.383-3.016,15.636-.052-.006-.1-.012-.151-.015-.505-.053-1.007-.11-1.506-.193m-.836-19.824q-.275-.151-.542-.316a.924.924,0,0,1-.511-1.086c.07-.218.326-.583.587-.572.244.012.389.558.424.727a5.989,5.989,0,0,1,.041,1.247m8.4,2.265a22.749,22.749,0,0,1,.646-3.1l.01-.048c.028-.138.107-.445.25-.52.333-.177,1.248.455,1.662.768.193,1.066-.4,2.683-1.555,2.84a7.4,7.4,0,0,1-1.013.062M96.335,97c-.128-.068-.251-.139-.358-.205a15.672,15.672,0,0,1,.395-2.664c.5-2.659-.467-4.854-1.662-7.2-1.844-3.605-4.664-7.027-5.528-11.041-1.034-4.8,3.872-9.78,7.821-11.691,3.84-1.857,8.481-1.653,12.448-.309,7.718,2.619,12.306,12.084,7.915,19.37-1.872,3.106-4.958,4.617-7.8,6.651-2.816,2.01-3.735,4.63-4.545,7.812a1.171,1.171,0,0,0-.168.139,4.806,4.806,0,0,1-1.688.337c.794-5.17,2.109-10.244,2.993-15.4,1.937.107,3.778-.343,4.847-2.165,1.439-2.458.576-6.911-2.708-7.286-2.209-.251-3.23,1.836-3.706,3.642A27.332,27.332,0,0,0,104.044,80a36.112,36.112,0,0,1-3.824-1.092l-.061-.019c-.061-1.735-.258-5.209-1.47-6.159-2.973-2.33-4.5,2.339-4.122,4.562.3,1.8,1.835,2.884,3.412,3.559-.165,2.268-.386,4.537-.615,6.8-.316,3.116-.652,6.239-1.029,9.348m1.61,12.218a2.338,2.338,0,0,1-1.422-.285,8.077,8.077,0,0,0,1.422.285m6-8.564c-.291,1.913-.329,4.385-1.929,5.435-2.115,1.386-6.072.566-7.619-1.431.2-1.823.57-3.615.943-5.4a12.887,12.887,0,0,0,3.964,1.168,15.661,15.661,0,0,0,4.642.228" transform="translate(-74.225 -49.546)" fill="#3bcc97" fill-rule="evenodd" opacity="0.77"/>
</svg>
