<svg id="insta" xmlns="http://www.w3.org/2000/svg" width="67" height="67" viewBox="0 0 67 67">
  <rect id="back" width="67" height="67" rx="9.571" fill="rgba(60,203,155,0.3)"/>
  <path id="insta-2" data-name="insta" d="M17.707,13.979a9.062,9.062,0,1,0,6.422,2.654,9.076,9.076,0,0,0-6.422-2.654Zm0,14.979a5.9,5.9,0,1,1,5.891-5.9,5.9,5.9,0,0,1-5.891,5.9Zm11.565-15.35a2.113,2.113,0,1,0-.01,0Zm6.011,2.154a10.478,10.478,0,0,0-2.871-7.418,10.545,10.545,0,0,0-7.418-2.871c-2.924-.165-11.684-.165-14.6,0A10.529,10.529,0,0,0,2.979,8.325,10.512,10.512,0,0,0,.108,15.743c-.165,2.924-.165,11.684,0,14.6a10.478,10.478,0,0,0,2.871,7.418A10.56,10.56,0,0,0,10.4,40.628c2.924.165,11.684.165,14.6,0a10.478,10.478,0,0,0,7.418-2.871,10.545,10.545,0,0,0,2.871-7.418c.165-2.924.165-11.677,0-14.6ZM31.5,33.5a5.982,5.982,0,0,1-3.364,3.35,39.018,39.018,0,0,1-10.435.718A39.322,39.322,0,0,1,7.262,36.85,5.982,5.982,0,0,1,3.9,33.5a39.018,39.018,0,0,1-.718-10.435A39.322,39.322,0,0,1,3.9,12.629,5.982,5.982,0,0,1,7.262,9.256,39.018,39.018,0,0,1,17.7,8.538a39.322,39.322,0,0,1,10.435.718A5.982,5.982,0,0,1,31.5,12.62a39.018,39.018,0,0,1,.718,10.435A39,39,0,0,1,31.5,33.5Z" transform="translate(15.403 10.455)" fill="#3ccb9b"/>
</svg>
