<svg id="linkedin" xmlns="http://www.w3.org/2000/svg" width="67" height="67" viewBox="0 0 67 67">
  <rect id="back" width="67" height="67" rx="9.571" fill="rgba(60,203,155,0.3)"/>
  <path id="linkedin-2" data-name="linkedin" d="M6.841,30.562H.5v-20.4H6.841ZM3.668,7.375a3.687,3.687,0,1,1,3.671-3.7,3.687,3.687,0,0,1-3.671,3.7ZM30.554,30.562H24.232V20.629c0-2.367-.048-5.4-3.295-5.4-3.295,0-3.8,2.572-3.8,5.233v10.1H10.809v-20.4h6.078v2.785h.089a6.657,6.657,0,0,1,6-3.295c6.413,0,7.59,4.223,7.59,9.708V30.564Z" transform="translate(18.513 18.229)" fill="#3ccb9b"/>
</svg>
