<svg id="Logo" xmlns="http://www.w3.org/2000/svg" width="158" height="56" viewBox="0 0 158 56">
  <rect id="Rectangle_17" data-name="Rectangle 17" width="158" height="56" fill="none"/>
  <rect id="Rectangle_16" data-name="Rectangle 16" width="53.138" height="12.288" rx="6.144" transform="translate(84 35.371)" fill="#57cc99"/>
  <g id="Group_20" data-name="Group 20">
    <path id="Path_9" data-name="Path 9" d="M400.214,367.962c.1-.143.2-.288.3-.435l.091-.138-12.658-6.64-.323-.145V335.786l-.08-.061-2.731-2.047V362l14.68,6.95Q399.86,368.469,400.214,367.962Z" transform="translate(-384.81 -320.511)" fill="#80ed99"/>
    <path id="Path_10" data-name="Path 10" d="M513.158,338.914a9.2,9.2,0,0,1-3.369-.616A8.233,8.233,0,0,1,506.555,336l-.011,0-.009-.028a10.292,10.292,0,0,1-1.04-1.433q-.132-.214-.255-.439-.3-.534-.555-1.127c-.068-.154-.134-.31-.2-.469a21,21,0,0,1-1.134-4.09,37.647,37.647,0,0,1-.414-9.011,30.05,30.05,0,0,1,5.7-15.5,38.667,38.667,0,0,1,3.061-3.794L499.787,309.5,484.634,298.91a37.383,37.383,0,0,1,6.564,8.842h0l.005,0,0,0a33.162,33.162,0,0,1,2.332,5.562,29.894,29.894,0,0,1,1.028,4.359c.036.231.071.462.1.693a27.319,27.319,0,0,1,.235,4.228.471.471,0,0,1,0,.054c0,.112-.008.226-.011.338q-.006.129-.012.258-.008.167-.018.334a24.619,24.619,0,0,1-.923,5.363c-.05.169-.1.338-.154.507q-.319,1.014-.726,1.994a22.95,22.95,0,0,1-1.243,2.527c-.084.148-.169.293-.256.439a24.325,24.325,0,0,1-1.58,2.313c-.114.15-.233.3-.353.447a25.943,25.943,0,0,1-1.941,2.14l-.283.275c-.274.263-.557.523-.847.778a30.281,30.281,0,0,1-5.256,3.7,36.431,36.431,0,0,0,17.874-6.714l.135.188s0,0,0,0c4.259,5,9.951,6.756,15.618,4.82a14.2,14.2,0,0,0,8.287-7.41C521.543,336.221,517.472,338.913,513.158,338.914Z" transform="translate(-474.831 -288.072)" fill="#22577a"/>
    <path id="Path_11" data-name="Path 11" d="M872.626,333.678V362L857.5,369.16a8.2,8.2,0,0,1-.843-.767l-.119-.127q-.065-.07-.127-.143c-.035-.04-.069-.079-.1-.118s-.086-.1-.127-.152q-.179-.218-.347-.454l13.716-7.142.005,0,.343-.158V335.725l.624-.468.506-.378Z" transform="translate(-824.286 -320.511)" fill="#80ed99"/>
    <path id="Path_12" data-name="Path 12" d="M851.887,300.45v28.32l-.071.033-9.33,4.858-4.445,2.314c-.045-.068-.087-.136-.128-.205s-.075-.119-.11-.18c-.051-.085-.1-.171-.148-.258-.115-.207-.229-.422-.336-.644-.074-.152-.145-.307-.214-.466-.011-.025-.022-.052-.032-.077l.75-.474s0,0,0,.006L848.8,326.2V302.765Z" transform="translate(-806.784 -289.508)" fill="#57cc99"/>
    <path id="Path_13" data-name="Path 13" d="M823.732,462.458v12.61l-10.681,7.279h0l-.733.463a19.034,19.034,0,0,1-.733-2.324c-.042-.171-.083-.345-.123-.521-.016-.079-.035-.159-.052-.239s-.029-.138-.044-.206l9.1-5.514v-6.614l-9.714,5.2c0-.806.03-1.665.09-2.577a28.168,28.168,0,0,1,2.433-9.726v7.865l9.956-5.427Z" transform="translate(-782.222 -438.646)" fill="#38a3a5"/>
    <path id="Path_14" data-name="Path 14" d="M491.848,288.786v7.289l8.5,5.744c-.028.1-.056.19-.086.284q-.329,1.061-.759,2.094-.253.605-.535,1.181l-10.26-6.931V269.911a38.36,38.36,0,0,1,8.484,10.129l-5.349-3.8v8.117l9.2,6.573.036.246c.018.135.035.267.052.4,0,.02.005.042.008.062.011.1.023.2.034.3s.021.205.032.307.018.185.025.278.015.184.023.275c.005.061.009.121.014.181,0,.016,0,.031,0,.048s0,.031,0,.048,0,.012,0,.018,0,.011,0,.016c0,.02,0,.04.005.061s0,.026,0,.039q.026.4.038.8c0,.141.007.28.011.421q0,.417,0,.833Z" transform="translate(-481.749 -261.015)" fill="#38a3a5"/>
    <path id="Path_15" data-name="Path 15" d="M448.007,341.374c-.153.3-.312.591-.474.876l-.018.031c-.079.138-.158.273-.239.408l-.017.031q-.087.144-.176.285l-5.355-2.809-7.348-3.856-.046-.023V308l3.136,2.352v.4l.1.076h0l-.1-.076v23.5Z" transform="translate(-431.017 -296.555)" fill="#57cc99"/>
    <path id="Path_16" data-name="Path 16" d="M864.416,262.329v7.284l-.506.254-9.559,4.866a37.494,37.494,0,0,1,9.179-11.705c.127-.111.254-.22.379-.325l.027-.022.308-.215.168-.135Z" transform="translate(-822.906 -253.94)" fill="#38a3a5"/>
    <path id="Path_17" data-name="Path 17" d="M625.342,203.957a7.864,7.864,0,0,1,.142-1.368,12.549,12.549,0,0,1,.811-2.384c.094-.226.189-.457.282-.689l-.3-.185-.183-.112-.3-.184c-.118.279-.243.555-.366.826a10.159,10.159,0,0,0-.99,2.926,3.236,3.236,0,0,0,.208,1.436h0l-.445.17.8,2.089,1.507-.576-.8-2.089Zm.715,1.75-.859.328-.551-1.441.114-.043c.025.068.051.135.076.2a8.605,8.605,0,0,1,.307.917l.339-.074a8.337,8.337,0,0,1-.138-1.269l.161-.062" transform="translate(-608.167 -194.885)" fill="#22577a"/>
    <path id="Path_18" data-name="Path 18" d="M635.27,146.489l-.049-.078-.093,0a7.54,7.54,0,0,0-4.133,1.2,4.171,4.171,0,0,1,1.943-1.23c.069-.024.139-.049.212-.071l.115-.036.126-.037.215-.059.031-.008c.085-.023.171-.043.26-.064l.069-.016.211-.046.073-.016.261-.051.022,0q.169-.031.346-.06l.146-.023v-1.969l4.874-1.544-8.647-5.307-9.672,3.064,1.77,1.085.3.184.183.112.3.185,2.149,1.319.082-.036a8.065,8.065,0,0,1,.784-.288,10.826,10.826,0,0,1,4.8-.254l-.311.008h0l-.225.007c-.129,0-.259.01-.389.017l-.29.017h-.012l-.289.022-.023,0-.277.026-.033,0-.266.029-.042.005-.255.033-.049.007-.247.037-.055.009-.237.042-.061.011-.227.045-.067.015-.216.049-.073.017-.2.053-.082.023-.188.056-.091.028-.171.056-.1.037-.152.056-.114.045-.1.041-.1.043-.1.046V145.2a5.694,5.694,0,0,0-.706.711,5.622,5.622,0,0,0,4.323,9.21c.174,0,.351-.009.527-.025a5.628,5.628,0,0,0,5.075-6.12A5.553,5.553,0,0,0,635.27,146.489Z" transform="translate(-605.723 -137.071)" fill="#22577a"/>
  </g>
  <path id="Path_3281" data-name="Path 3281" d="M7.767-33.834a2,2,0,0,0,.411.084q.206.019.411.019a3.454,3.454,0,0,0,.99-.141,3.577,3.577,0,0,0,.893-.4,3.327,3.327,0,0,0,.745-.643,3.377,3.377,0,0,0,.533-.842l2.57,2.583A6.919,6.919,0,0,1,13.2-31.932a7.1,7.1,0,0,1-1.375.938,6.871,6.871,0,0,1-1.555.585,7.046,7.046,0,0,1-1.677.2,6.949,6.949,0,0,1-2.731-.54,6.9,6.9,0,0,1-2.236-1.5,7.056,7.056,0,0,1-1.51-2.294,7.547,7.547,0,0,1-.553-2.924,7.8,7.8,0,0,1,.553-2.981,6.863,6.863,0,0,1,1.51-2.3,6.832,6.832,0,0,1,2.236-1.478,7.1,7.1,0,0,1,2.731-.527,6.914,6.914,0,0,1,1.683.206,7.069,7.069,0,0,1,1.561.591,7.11,7.11,0,0,1,1.381.945,6.978,6.978,0,0,1,1.131,1.253Zm1.8-7.235a2.02,2.02,0,0,0-.482-.116,4.6,4.6,0,0,0-.495-.026,3.508,3.508,0,0,0-1.356.263,3.226,3.226,0,0,0-1.105.752A3.544,3.544,0,0,0,5.39-39.02a4.209,4.209,0,0,0-.27,1.549q0,.193.019.437t.064.495q.045.251.109.482a1.793,1.793,0,0,0,.167.411Zm5.834-2.3a5.312,5.312,0,0,1,.437-2.146,5.645,5.645,0,0,1,1.189-1.754,5.645,5.645,0,0,1,1.754-1.189,5.312,5.312,0,0,1,2.146-.437h8.456v3.688H20.927a1.828,1.828,0,0,0-.72.141,1.822,1.822,0,0,0-.585.392,1.822,1.822,0,0,0-.392.585,1.828,1.828,0,0,0-.141.72,1.875,1.875,0,0,0,.141.726,1.8,1.8,0,0,0,.392.591,1.822,1.822,0,0,0,.585.392,1.828,1.828,0,0,0,.72.141h3.688a5.426,5.426,0,0,1,2.153.431,5.535,5.535,0,0,1,1.761,1.182,5.536,5.536,0,0,1,1.182,1.761,5.426,5.426,0,0,1,.43,2.153,5.38,5.38,0,0,1-.43,2.146,5.555,5.555,0,0,1-1.182,1.754A5.625,5.625,0,0,1,26.767-30.9a5.357,5.357,0,0,1-2.153.437H16.429v-3.688h8.186a1.828,1.828,0,0,0,.72-.141,1.822,1.822,0,0,0,.585-.392,1.822,1.822,0,0,0,.392-.585,1.828,1.828,0,0,0,.141-.72,1.828,1.828,0,0,0-.141-.72,1.822,1.822,0,0,0-.392-.585,1.822,1.822,0,0,0-.585-.392,1.828,1.828,0,0,0-.72-.141H20.927a5.312,5.312,0,0,1-2.146-.437,5.645,5.645,0,0,1-1.754-1.189,5.625,5.625,0,0,1-1.189-1.761A5.357,5.357,0,0,1,15.4-43.37Zm28.811,1.876-2.57,2.583a3.477,3.477,0,0,0-.527-.97,3.54,3.54,0,0,0-.752-.726,3.256,3.256,0,0,0-.906-.45,3.309,3.309,0,0,0-1-.154,3.178,3.178,0,0,0-1.356.3,3.322,3.322,0,0,0-1.105.829,3.974,3.974,0,0,0-.739,1.266,4.653,4.653,0,0,0-.27,1.619,3.389,3.389,0,0,0,.27,1.349,3.548,3.548,0,0,0,.739,1.105A3.4,3.4,0,0,0,37.1-34a3.435,3.435,0,0,0,1.356.27,3.454,3.454,0,0,0,.99-.141,3.576,3.576,0,0,0,.893-.4,3.327,3.327,0,0,0,.745-.643,3.377,3.377,0,0,0,.533-.842l2.57,2.583a6.919,6.919,0,0,1-1.124,1.247,7.1,7.1,0,0,1-1.375.938,6.871,6.871,0,0,1-1.555.585,7.046,7.046,0,0,1-1.677.2,6.879,6.879,0,0,1-2.731-.546,7.093,7.093,0,0,1-2.236-1.5,7.071,7.071,0,0,1-1.51-2.223,6.764,6.764,0,0,1-.553-2.724,7.852,7.852,0,0,1,.553-2.956,7.622,7.622,0,0,1,1.51-2.4,7.143,7.143,0,0,1,2.236-1.613,6.429,6.429,0,0,1,2.731-.591,6.6,6.6,0,0,1,1.69.218,6.824,6.824,0,0,1,1.581.636,6.82,6.82,0,0,1,1.388,1.022A6.356,6.356,0,0,1,44.212-41.493ZM49.43-30.467H45.921V-49.705H49.43v6.078a4.1,4.1,0,0,1,1.3-.675,4.744,4.744,0,0,1,1.362-.2,5.974,5.974,0,0,1,2.39.482,6.08,6.08,0,0,1,1.947,1.324,6.322,6.322,0,0,1,1.311,1.966,6.019,6.019,0,0,1,.482,2.4v7.865H54.686v-7.865h.026a2.576,2.576,0,0,0-.206-1.022,2.646,2.646,0,0,0-.565-.842,2.666,2.666,0,0,0-.835-.565,2.53,2.53,0,0,0-1.015-.206,2.655,2.655,0,0,0-1.041.206,2.628,2.628,0,0,0-.848.565,2.646,2.646,0,0,0-.565.842,2.576,2.576,0,0,0-.206,1.022Zm24.584-7a7.411,7.411,0,0,1-.553,2.872,7.185,7.185,0,0,1-1.5,2.3,7.034,7.034,0,0,1-2.23,1.529,6.774,6.774,0,0,1-2.744.559,6.742,6.742,0,0,1-2.731-.559A7.11,7.11,0,0,1,62.017-32.3a7.13,7.13,0,0,1-1.51-2.3,7.411,7.411,0,0,1-.553-2.872,7.526,7.526,0,0,1,.553-2.9,7.113,7.113,0,0,1,1.51-2.307A7.022,7.022,0,0,1,64.253-44.2a6.809,6.809,0,0,1,2.731-.553,7.207,7.207,0,0,1,2.744.52,6.63,6.63,0,0,1,2.23,1.478,7,7,0,0,1,1.5,2.3A7.783,7.783,0,0,1,74.013-37.471Zm-3.534,0a4.086,4.086,0,0,0-.276-1.536,3.648,3.648,0,0,0-.752-1.182,3.25,3.25,0,0,0-1.112-.758,3.508,3.508,0,0,0-1.356-.263,3.508,3.508,0,0,0-1.356.263,3.184,3.184,0,0,0-1.105.758,3.618,3.618,0,0,0-.739,1.182,4.172,4.172,0,0,0-.27,1.536,3.976,3.976,0,0,0,.27,1.478,3.71,3.71,0,0,0,.739,1.182,3.457,3.457,0,0,0,1.105.79,3.238,3.238,0,0,0,1.356.289A3.435,3.435,0,0,0,68.34-34a3.374,3.374,0,0,0,1.112-.758,3.558,3.558,0,0,0,.752-1.182A4.1,4.1,0,0,0,70.479-37.471Zm18.775,0A7.411,7.411,0,0,1,88.7-34.6a7.185,7.185,0,0,1-1.5,2.3,7.034,7.034,0,0,1-2.23,1.529,6.773,6.773,0,0,1-2.744.559,6.742,6.742,0,0,1-2.731-.559A7.11,7.11,0,0,1,77.258-32.3a7.131,7.131,0,0,1-1.51-2.3,7.411,7.411,0,0,1-.553-2.872,7.526,7.526,0,0,1,.553-2.9,7.113,7.113,0,0,1,1.51-2.307A7.022,7.022,0,0,1,79.494-44.2a6.809,6.809,0,0,1,2.731-.553,7.207,7.207,0,0,1,2.744.52,6.63,6.63,0,0,1,2.23,1.478,7,7,0,0,1,1.5,2.3A7.782,7.782,0,0,1,89.254-37.471Zm-3.534,0a4.086,4.086,0,0,0-.276-1.536,3.647,3.647,0,0,0-.752-1.182,3.25,3.25,0,0,0-1.112-.758,3.508,3.508,0,0,0-1.356-.263,3.508,3.508,0,0,0-1.356.263,3.184,3.184,0,0,0-1.105.758,3.618,3.618,0,0,0-.739,1.182,4.172,4.172,0,0,0-.27,1.536,3.976,3.976,0,0,0,.27,1.478,3.71,3.71,0,0,0,.739,1.182,3.456,3.456,0,0,0,1.105.79,3.238,3.238,0,0,0,1.356.289A3.435,3.435,0,0,0,83.581-34a3.374,3.374,0,0,0,1.112-.758,3.558,3.558,0,0,0,.752-1.182A4.1,4.1,0,0,0,85.72-37.471Zm9.008,7H91.195V-49.705h3.534Z" transform="translate(62.439 59.885)" fill="#22577a"/>
  <text id="SaaS" transform="translate(99 45.016)" fill="#fff" font-size="10" font-family="Righteous-Regular, Righteous"><tspan x="0" y="0">SaaS</tspan></text>
</svg>
