<svg id="playstore" xmlns="http://www.w3.org/2000/svg" width="21" height="21" viewBox="0 0 21 21">
  <rect id="Rectangle_175" data-name="Rectangle 175" width="21" height="21" fill="none"/>
  <g id="playstore-2" data-name="playstore" transform="translate(0.905)">
    <path id="Path_3742" data-name="Path 3742" d="M1.806,21l-.144-.048,9.417-9.417,3.021,3.02c-.042.026-.1.062-.155.094Q8.506,17.694,3.064,20.734A4.8,4.8,0,0,1,2.34,21H1.807Z"/>
    <path id="Path_3743" data-name="Path 3743" d="M.4.856l9.639,9.64L.4,20.136a1.933,1.933,0,0,1-.4-1.063C0,19,0,18.923,0,18.848Q0,10.5,0,2.155A2.11,2.11,0,0,1,.4.856Z"/>
    <path id="Path_3744" data-name="Path 3744" d="M1.636.052A1.925,1.925,0,0,1,3.027.245Q8.532,3.319,14.033,6.4a.283.283,0,0,1,.042.028l-3.03,3.03Z"/>
    <path id="Path_3745" data-name="Path 3745" d="M12.049,10.487l1.164-1.163c.681-.681,1.364-1.361,2.041-2.046a.192.192,0,0,1,.277-.043c.849.482,1.7.954,2.553,1.433a2.071,2.071,0,0,1,0,3.665c-.85.479-1.7.952-2.554,1.43-.09.05-.154.081-.247-.013q-1.6-1.608-3.2-3.206a.422.422,0,0,1-.035-.058Z"/>
  </g>
</svg>
