<svg xmlns="http://www.w3.org/2000/svg" width="106.966" height="69.709" viewBox="0 0 106.966 69.709">
  <g id="scale" opacity="0.2">
    <path id="scale-2" data-name="scale" d="M105.705,34.56a21.472,21.472,0,0,1,2.2-1.877c1.728-1.374,3.48-2.723,5.235-4.063q7.785-5.955,15.674-11.774c5.319-3.943,10.658-7.87,16.056-11.7,1.794-1.273,3.6-2.549,5.433-3.765.529-.348,1.069-.7,1.618-1.02.334-.191.845-.516,1.222-.266a27.914,27.914,0,0,1,4.067,3.422c1.476,1.449,2.88,2.982,4.257,4.523,2.2,2.465,4.35,5.05,6.654,7.413,13.336,13.669,24.4,29.114,36.682,43.667q3.6,4.265,7.364,8.387c1.025,1.117-.687,2.853-1.819,1.96-6.608-2.379-13.295-4.575-19.983-6.721-7.828-2.516-15.681-4.952-23.541-7.366-14.227-4.365-28.5-8.605-42.688-13.086-4.582-1.447-9.223-2.9-13.728-4.57-1.155-.425-2.362-.879-3.47-1.417-.5-.242-1.574-.728-1.4-1.438a.665.665,0,0,1,.17-.306m90.529,17.686c-2.572-3.358-5.134-6.721-7.777-10.024-.682.878-1.385,1.742-2,2.668-.955,1.436-3.073-.144-2.129-1.568.744-1.118,1.608-2.147,2.416-3.212-1.617-1.974-3.274-3.921-4.982-5.819q-1.077-1.2-2.151-2.4a4.7,4.7,0,0,0-1.3,1.916,1.262,1.262,0,0,1-.986.759,1.322,1.322,0,0,1-1.434-1.826,8.267,8.267,0,0,1,1.921-2.87c-2.1-2.352-4.2-4.7-6.326-7.024a8.033,8.033,0,0,0-1.532,1.77c-.892,1.476-3.033-.068-2.151-1.53a9.858,9.858,0,0,1,1.89-2.18q-1.23-1.319-2.479-2.62c-1.555-1.619-3.129-3.221-4.682-4.844a12.137,12.137,0,0,0-.8,1.474,1.322,1.322,0,0,1-2.416-1.071,14.894,14.894,0,0,1,1.349-2.374c-.415-.449-.832-.9-1.239-1.354-.9-.99-1.752-2.017-2.629-3.026a13.627,13.627,0,0,0-2.294,2.146,1.373,1.373,0,0,1-2.331-.58,1.2,1.2,0,0,1,.3-1.113,17.273,17.273,0,0,1,2.537-2.424,21.844,21.844,0,0,0-2.544-2.276c-2.678,2.089-5.387,4.141-8.087,6.2q-6.916,5.276-13.854,10.512-6.059,4.578-12.148,9.117c-2.571,1.916-5.15,3.84-7.759,5.705.463.1.927.215,1.369.327,1.38.342,2.751.727,4.118,1.119,3.994,1.148,7.973,2.383,11.941,3.617,10.935,3.4,21.846,6.867,32.81,10.171C172.082,53,183.2,56.7,194.232,60.657c3.334,1.2,6.656,2.419,9.981,3.633.848.311,1.7.619,2.548.917q-.75-.837-1.492-1.693c-2.539-2.933-4.969-5.987-7.342-9.059a13.992,13.992,0,0,1-2.273,2.014,1.321,1.321,0,0,1-1.592-2.108c.355-.271,2.167-1.532,2.173-2.115m-27.148-11.1q-4.23-6.218-8.579-12.35c-2.139-3-4.313-6-6.571-8.913-.913-1.178-1.844-2.352-2.81-3.486a27.878,27.878,0,0,0-2.214-2.37.5.5,0,0,0-.1-.071,1.2,1.2,0,0,0-.961-.117.462.462,0,0,1-.05.008c-1.454.277-3.876,2.1-5.036,3.013A61.443,61.443,0,0,0,136,23.079a43.571,43.571,0,0,0-5.1,6.4,1.33,1.33,0,0,0,.551,1.988c11.741,4.835,24.6,6.549,36.191,11.838a1.324,1.324,0,0,0,1.44-2.165m-21.1-25.083c-5.081,3.459-10.807,8.38-14.246,13.522,8.016,2.268,15.96,4.793,23.787,7.65,2.161.788,4.308,1.608,6.457,2.425.251.1.873.348,1.454.563-.085-.121-.165-.232-.232-.326-.7-1.022-1.416-2.035-2.133-3.047q-3.114-4.4-6.277-8.763-2.723-3.768-5.473-7.523c-1.1-1.5-2.2-3.02-3.338-4.5" transform="translate(-105.517 0)" fill="#3bcc97" fill-rule="evenodd"/>
  </g>
</svg>
