<svg id="twitter" xmlns="http://www.w3.org/2000/svg" width="67" height="67" viewBox="0 0 67 67">
  <rect id="back" width="67" height="67" rx="9.571" fill="rgba(60,203,155,0.3)"/>
  <path id="twitter-2" data-name="twitter" d="M34,15.759c.024.337.024.672.024,1.01A21.943,21.943,0,0,1,11.926,38.862,21.945,21.945,0,0,1,0,35.376a16.066,16.066,0,0,0,1.876.1,15.554,15.554,0,0,0,9.641-3.316,7.779,7.779,0,0,1-7.26-5.386,9.792,9.792,0,0,0,1.467.12,8.212,8.212,0,0,0,2.044-.263A7.767,7.767,0,0,1,1.546,19v-.1a7.82,7.82,0,0,0,3.51.986A7.777,7.777,0,0,1,2.663,9.5a22.072,22.072,0,0,0,16,8.129,8.765,8.765,0,0,1-.191-1.778,7.772,7.772,0,0,1,13.438-5.312A15.288,15.288,0,0,0,36.84,8.667a7.743,7.743,0,0,1-3.424,4.278,15.568,15.568,0,0,0,4.472-1.2A16.692,16.692,0,0,1,34,15.759Z" transform="translate(12.893 10.297)" fill="#3ccb9b"/>
</svg>
